<svg width="32" height="32" viewBox="0 0 32 32" fill="none" xmlns="http://www.w3.org/2000/svg">
<path d="M14.3968 3.82079C14.8374 3.425 15.4087 3.20605 16.0008 3.20605C16.593 3.20605 17.1643 3.425 17.6048 3.82079L26.4048 11.728C26.6551 11.953 26.8551 12.2281 26.9921 12.5354C27.1291 12.8428 27.2 13.1755 27.2 13.512V24.8C27.2 25.4365 26.9472 26.047 26.4971 26.497C26.047 26.9471 25.4366 27.2 24.8 27.2H20.8C20.1635 27.2 19.5531 26.9471 19.103 26.497C18.6529 26.047 18.4 25.4365 18.4 24.8V19.2C18.4 18.9878 18.3158 18.7843 18.1657 18.6343C18.0157 18.4843 17.8122 18.4 17.6 18.4H14.4C14.1879 18.4 13.9844 18.4843 13.8344 18.6343C13.6843 18.7843 13.6 18.9878 13.6 19.2V24.8C13.6 25.4365 13.3472 26.047 12.8971 26.497C12.447 26.9471 11.8366 27.2 11.2 27.2H7.20005C6.56353 27.2 5.95308 26.9471 5.50299 26.497C5.05291 26.047 4.80005 25.4365 4.80005 24.8V13.512C4.80005 12.832 5.08805 12.184 5.59685 11.728L14.3968 3.82079ZM16.5344 5.01119C16.3876 4.87941 16.1973 4.80652 16 4.80652C15.8028 4.80652 15.6125 4.87941 15.4656 5.01119L6.66565 12.9184C6.58228 12.9932 6.51557 13.0847 6.46981 13.187C6.42406 13.2892 6.40029 13.4 6.40005 13.512V24.8C6.40005 25.0122 6.48433 25.2156 6.63436 25.3657C6.78439 25.5157 6.98788 25.6 7.20005 25.6H11.2C11.4122 25.6 11.6157 25.5157 11.7657 25.3657C11.9158 25.2156 12 25.0122 12 24.8V19.2C12 18.5635 12.2529 17.953 12.703 17.5029C13.1531 17.0528 13.7635 16.8 14.4 16.8H17.6C18.2366 16.8 18.847 17.0528 19.2971 17.5029C19.7472 17.953 20 18.5635 20 19.2V24.8C20 25.0122 20.0843 25.2156 20.2344 25.3657C20.3844 25.5157 20.5879 25.6 20.8 25.6H24.8C25.0122 25.6 25.2157 25.5157 25.3657 25.3657C25.5158 25.2156 25.6 25.0122 25.6 24.8V13.512C25.5998 13.4 25.576 13.2892 25.5303 13.187C25.4845 13.0847 25.4178 12.9932 25.3344 12.9184L16.5344 5.01119Z" fill="black"/>
</svg>
