<svg width="24" height="24" viewBox="0 0 24 24" fill="none" xmlns="http://www.w3.org/2000/svg">
<path fill-rule="evenodd" clip-rule="evenodd" d="M16.6652 3.47266H16.6655C17.4832 3.47266 18.2673 3.79747 18.8455 4.37565C19.4132 4.94332 19.7366 5.70959 19.7482 6.51115C19.7491 6.52593 19.7495 6.54077 19.7495 6.55566C19.7495 7.16536 19.5687 7.76137 19.23 8.26834C18.8913 8.77531 18.4099 9.17047 17.8466 9.40385C17.2833 9.63723 16.6635 9.69836 16.0655 9.57951C15.4675 9.46066 14.9182 9.16717 14.487 8.73613C14.4785 8.72765 14.47 8.71912 14.4616 8.71054L10.2962 11.1469C10.3758 11.4236 10.4165 11.7106 10.4165 11.9996C10.4165 12.2919 10.3749 12.5811 10.2944 12.8587L14.461 15.2903C14.6096 15.1382 14.7742 15.0012 14.9527 14.8818C15.4595 14.5429 16.0555 14.3618 16.6652 14.3616C17.0702 14.3614 17.4712 14.441 17.8454 14.5959C18.2196 14.7507 18.5596 14.9778 18.846 15.2641C19.1325 15.5504 19.3597 15.8903 19.5147 16.2645C19.6697 16.6386 19.7495 17.0396 19.7495 17.4446C19.7495 18.0543 19.5687 18.6503 19.23 19.1573C18.8913 19.6642 18.4099 20.0594 17.8466 20.2928C17.2833 20.5261 16.6635 20.5873 16.0655 20.4684C15.4675 20.3496 14.9182 20.0561 14.487 19.625C14.0557 19.194 13.762 18.6448 13.6429 18.0468C13.546 17.5604 13.5682 17.0594 13.7054 16.5861L9.53848 14.1544C9.24859 14.451 8.9004 14.6876 8.51361 14.8478C7.95034 15.0812 7.33052 15.1423 6.73251 15.0235C6.13451 14.9046 5.58517 14.6111 5.15395 14.1801C4.72273 13.7491 4.429 13.1999 4.30989 12.6019C4.19078 12.0039 4.25165 11.3841 4.48479 10.8207C4.71793 10.2574 5.11288 9.77577 5.61971 9.43685C6.12653 9.09792 6.72247 8.91689 7.33217 8.91663C7.73715 8.91645 8.13819 8.99607 8.51239 9.15093C8.88659 9.30578 9.22661 9.53285 9.51303 9.81915C9.52314 9.82925 9.53318 9.83943 9.54314 9.84966L13.7057 7.41497C13.6811 7.33046 13.6602 7.24471 13.6429 7.15793C13.5238 6.55997 13.5847 5.94013 13.8178 5.37676C14.0509 4.81339 14.4459 4.3318 14.9527 3.99288C15.4595 3.65395 16.0555 3.47292 16.6652 3.47266ZM15.3109 7.3731C15.307 7.36601 15.3031 7.35895 15.299 7.35193C15.2952 7.3455 15.2914 7.33915 15.2874 7.33287C15.2057 7.18781 15.1469 7.02997 15.114 6.8649C15.0528 6.55787 15.0841 6.23961 15.2038 5.95034C15.3235 5.66107 15.5263 5.41379 15.7865 5.23977C16.0467 5.06581 16.3526 4.97285 16.6655 4.97266L18.2492 6.58756C18.2431 6.88947 18.1508 7.18359 17.9828 7.43505C17.8088 7.69536 17.5617 7.89826 17.2724 8.01809C16.9832 8.13793 16.665 8.16931 16.3579 8.10829C16.0509 8.04726 15.7688 7.89656 15.5474 7.67525C15.4561 7.58401 15.3768 7.48246 15.3109 7.3731ZM18.2492 6.58756L16.6658 4.97266C17.0855 4.97274 17.4881 5.13951 17.7848 5.43631C18.0817 5.73318 18.2485 6.13582 18.2485 6.55566C18.2485 6.56632 18.2487 6.57695 18.2492 6.58756ZM8.68883 11.1817C8.62275 11.0722 8.54348 10.9709 8.4526 10.88C8.30553 10.733 8.13094 10.6164 7.93881 10.5369C7.74667 10.4574 7.54075 10.4165 7.33281 10.4166C7.01975 10.4168 6.71376 10.5097 6.45353 10.6837C6.19329 10.8578 5.9905 11.105 5.87079 11.3943C5.75108 11.6836 5.71983 12.0018 5.78099 12.3089C5.84215 12.6159 5.99297 12.8979 6.21438 13.1192C6.43579 13.3405 6.71786 13.4912 7.02491 13.5523C7.33197 13.6133 7.65022 13.5819 7.93943 13.4621C8.22865 13.3422 8.47584 13.1393 8.64975 12.879C8.66085 12.8624 8.67162 12.8456 8.68206 12.8286C8.68767 12.8179 8.69358 12.8071 8.69977 12.7965C8.70592 12.786 8.7123 12.7757 8.71888 12.7655C8.84815 12.5317 8.91649 12.2682 8.91649 11.9996C8.91649 11.7917 8.87552 11.5858 8.79593 11.3937C8.77277 11.3378 8.74648 11.2834 8.71721 11.2307C8.71276 11.2237 8.70842 11.2165 8.70417 11.2093C8.69885 11.2001 8.69373 11.191 8.68883 11.1817ZM15.2038 16.8393C15.2183 16.8041 15.2341 16.7697 15.251 16.7358C15.2713 16.7097 15.2902 16.682 15.3073 16.6526C15.3246 16.623 15.3396 16.5928 15.3524 16.562C15.4669 16.3915 15.6141 16.244 15.7865 16.1287C16.0468 15.9547 16.3528 15.8617 16.6658 15.8616C16.8738 15.8615 17.0797 15.9024 17.2718 15.9819C17.464 16.0614 17.6385 16.178 17.7856 16.325C17.9327 16.472 18.0493 16.6465 18.1289 16.8386C18.2085 17.0307 18.2495 17.2366 18.2495 17.4446C18.2495 17.7576 18.1567 18.0637 17.9828 18.324C17.8088 18.5843 17.5617 18.7872 17.2724 18.907C16.9832 19.0268 16.665 19.0582 16.3579 18.9972C16.0509 18.9362 15.7688 18.7855 15.5474 18.5642C15.326 18.3428 15.1752 18.0608 15.114 17.7538C15.0528 17.4468 15.0841 17.1285 15.2038 16.8393Z" fill="white"/>
</svg>
